<svg width="12" height="15" viewBox="0 0 12 15" fill="none" xmlns="http://www.w3.org/2000/svg">
<path d="M0.666687 14.6667C0.666687 13.2522 1.22859 11.8956 2.22878 10.8955C3.22898 9.89526 4.58553 9.33335 6.00002 9.33335C7.41451 9.33335 8.77106 9.89526 9.77126 10.8955C10.7715 11.8956 11.3334 13.2522 11.3334 14.6667H10C10 13.6058 9.57859 12.5884 8.82845 11.8383C8.0783 11.0881 7.06089 10.6667 6.00002 10.6667C4.93915 10.6667 3.92174 11.0881 3.17159 11.8383C2.42145 12.5884 2.00002 13.6058 2.00002 14.6667H0.666687ZM6.00002 8.66669C3.79002 8.66669 2.00002 6.87669 2.00002 4.66669C2.00002 2.45669 3.79002 0.666687 6.00002 0.666687C8.21002 0.666687 10 2.45669 10 4.66669C10 6.87669 8.21002 8.66669 6.00002 8.66669ZM6.00002 7.33335C7.47335 7.33335 8.66669 6.14002 8.66669 4.66669C8.66669 3.19335 7.47335 2.00002 6.00002 2.00002C4.52669 2.00002 3.33335 3.19335 3.33335 4.66669C3.33335 6.14002 4.52669 7.33335 6.00002 7.33335Z" fill="#2E384D"/>
</svg>
